<?xml version="1.0" encoding="UTF-8" standalone="no"?>
<!-- Created with Inkscape (http://www.inkscape.org/) -->

<svg
   xmlns:dc="http://purl.org/dc/elements/1.1/"
   xmlns:cc="http://creativecommons.org/ns#"
   xmlns:rdf="http://www.w3.org/1999/02/22-rdf-syntax-ns#"
   xmlns:svg="http://www.w3.org/2000/svg"
   xmlns="http://www.w3.org/2000/svg"
   xmlns:sodipodi="http://sodipodi.sourceforge.net/DTD/sodipodi-0.dtd"
   xmlns:inkscape="http://www.inkscape.org/namespaces/inkscape"
   width="300mm"
   height="300mm"
   viewBox="0 0 300 299.99999"
   version="1.1"
   id="svg6567"
   inkscape:version="0.91 r13725"
   sodipodi:docname="grimreaper-isolated.svg">
  <metadata
     id="metadata5915">
    <rdf:RDF>
      <cc:Work
         rdf:about="">
        <dc:format>image/svg+xml</dc:format>
        <dc:type
           rdf:resource="http://purl.org/dc/dcmitype/StillImage" />
        <dc:title></dc:title>
        <dc:description>remix by j4p4n</dc:description>
        <cc:license
           rdf:resource="http://creativecommons.org/publicdomain/zero/1.0/" />
      </cc:Work>
      <cc:License
         rdf:about="http://creativecommons.org/publicdomain/zero/1.0/">
        <cc:permits
           rdf:resource="http://creativecommons.org/ns#Reproduction" />
        <cc:permits
           rdf:resource="http://creativecommons.org/ns#Distribution" />
        <cc:permits
           rdf:resource="http://creativecommons.org/ns#DerivativeWorks" />
      </cc:License>
    </rdf:RDF>
  </metadata>
  <sodipodi:namedview
     id="namedview6569"
     pagecolor="#ffffff"
     bordercolor="#666666"
     borderopacity="1.0"
     inkscape:pageshadow="2"
     inkscape:pageopacity="0.0"
     inkscape:pagecheckerboard="0"
     inkscape:document-units="mm"
     showgrid="false"
     inkscape:zoom="0.33025078"
     inkscape:cx="544.02944"
     inkscape:cy="537.89944"
     inkscape:window-width="1916"
     inkscape:window-height="1035"
     inkscape:window-x="237"
     inkscape:window-y="25"
     inkscape:window-maximized="0"
     inkscape:current-layer="g10042"
     inkscape:snap-nodes="false"
     fit-margin-top="0"
     fit-margin-left="0"
     fit-margin-right="0"
     fit-margin-bottom="0" />
  <defs
     id="defs6564">
    <linearGradient
       gradientTransform="matrix(0.75,0,0,0.75,640.528,600.994)"
       y2="26.191999"
       x2="311.31699"
       y1="235.474"
       x1="172.983"
       gradientUnits="userSpaceOnUse"
       id="Gradient_2">
      <stop
         id="stop9"
         stop-color="#92938D"
         offset="0" />
      <stop
         id="stop11"
         stop-color="#92938D"
         offset="0.034" />
      <stop
         id="stop13"
         stop-color="#A7AAAD"
         offset="0.219" />
      <stop
         id="stop15"
         stop-color="#5F686A"
         offset="0.719" />
      <stop
         id="stop17"
         stop-color="#838B8D"
         offset="1" />
    </linearGradient>
  </defs>
  <g
     inkscape:label="Capa 1"
     inkscape:groupmode="layer"
     id="layer1"
     transform="translate(12.778144,83.985047)">
    <g
       id="g10042"
       transform="matrix(0.87027876,0,0,0.85232683,-122.46424,-51.528763)">
      <g
         id="g7206"
         transform="matrix(1.6,0,0,1.6,-191.85892,-92.180841)">
        <path
           sodipodi:nodetypes="sssss"
           d="m 287.64393,97.320735 c -3.89011,8.724475 -7.21818,17.514255 -13.17463,17.910155 -7.26013,0.48256 -13.17464,-8.01865 -13.17464,-17.910155 0,-9.89152 5.89849,-17.91018 13.17464,-17.91017 7.27615,0 17.20281,8.87603 13.17463,17.91017 z"
           style="fill:#6c5d53;stroke:#6c5d53;stroke-width:1.17592001"
           id="path7189"
           inkscape:connector-curvature="0" />
        <path
           inkscape:connector-curvature="0"
           sodipodi:nodetypes="sssss"
           d="m 326.4799,148.27084 c 0,4.01358 -1.74725,4.7666 -5.17071,4.7666 -3.42345,0 -6.1987,-3.25366 -6.1987,-7.26722 0,-4.01357 6.1113,-10.96276 6.01709,-7.82352 -0.26746,8.91278 5.35232,6.31057 5.35232,10.32414 z"
           style="fill:#6c5d53;stroke:#6c5d53;stroke-width:0.91965997"
           id="path6796" />
        <path
           sodipodi:nodetypes="sssss"
           d="m 246.98258,166.1919 c 0,3.29763 -1.10805,6.70899 -2.47072,3.70608 -5.91564,-13.03627 -15.11095,4.83521 -10.70643,-5.55912 1.28661,-3.03628 3.90862,-4.11785 7.20625,-4.11785 3.29763,0 5.9709,2.67326 5.9709,5.97089 z"
           style="fill:#6c5d53;fill-opacity:1;stroke:#6c5d53;stroke-width:0.96499902"
           id="path5165"
           inkscape:connector-curvature="0" />
        <path
           id="path4428"
           style="fill:#ffffff;stroke:#000000;stroke-width:0.53893101"
           inkscape:transform-center-x="-7.9753056"
           d="m 279.11614,206.83277 a 1.5614625,3.6006586 4.793746 0 0 -1.80675,3.59958 1.5614625,3.6006586 4.793746 0 0 1.02081,3.51017 l -1.05453,15.76032 a 1.8813791,3.7532701 5.2283182 0 0 -0.0301,6.5e-4 1.8813791,3.7532701 5.2283182 0 0 -2.13829,3.75247 1.8813791,3.7532701 5.2283182 0 0 1.6376,3.73079 1.8813791,3.7532701 5.2283182 0 0 1.73895,-1.82481 1.8813791,3.7532701 5.2283182 0 0 1.25893,1.08278 1.8813791,3.7532701 5.2283182 0 0 2.13831,-3.75245 1.8813791,3.7532701 5.2283182 0 0 -1.6376,-3.73081 1.8813791,3.7532701 5.2283182 0 0 -0.59342,0.18756 l 0.9307,-13.90976 a 1.8813791,3.7532701 5.2283182 0 0 0.56878,0.18091 1.8813791,3.7532701 5.2283182 0 0 2.13828,-3.75244 1.8813791,3.7532701 5.2283182 0 0 -1.63757,-3.73082 1.8813791,3.7532701 5.2283182 0 0 -1.26589,0.87535 1.5614625,3.6006586 4.793746 0 0 -1.26846,-1.9781 z"
           inkscape:transform-center-y="-56.979501"
           inkscape:connector-curvature="0" />
        <path
           id="path4430"
           style="fill:#ffffff;stroke:#000000;stroke-width:0.61877298"
           d="m 290.22553,167.94163 c -0.76245,7.79378 -12.27039,-0.70946 -17.94479,-2.94892 -2.80666,-1.10768 -15.35038,9.44243 -17.69922,2.45443 -2.93853,-8.74243 10.26395,-14.42392 17.45365,-13.61662 6.38217,0.71662 19.50105,0.71307 18.19036,14.11111 z"
           sodipodi:nodetypes="sssss"
           inkscape:connector-curvature="0" />
        <path
           id="path4432"
           style="fill:#ffffff;stroke:#000000;stroke-width:0.59835702;stroke-miterlimit:4;stroke-dasharray:none"
           d="m 276.48355,151.27127 a 3.6664252,4.2828061 0 0 1 -3.66643,4.28282 3.6664252,4.2828061 0 0 1 -3.66642,-4.28282 3.6664252,4.2828061 0 0 1 3.66642,-4.28281 3.6664252,4.2828061 0 0 1 3.66643,4.28281 z"
           inkscape:connector-curvature="0" />
        <path
           id="path4434"
           style="fill:#ffffff;stroke:#000000;stroke-width:0.59835702;stroke-miterlimit:4;stroke-dasharray:none"
           d="m 278.61552,108.97321 a 3.6664252,4.2828061 0 0 1 -3.66642,4.2828 3.6664252,4.2828061 0 0 1 -3.66643,-4.2828 3.6664252,4.2828061 0 0 1 3.66643,-4.28281 3.6664252,4.2828061 0 0 1 3.66642,4.28281 z"
           inkscape:connector-curvature="0" />
        <path
           id="path4436"
           style="fill:#ffffff;stroke:#000000;stroke-width:0.59835702;stroke-miterlimit:4;stroke-dasharray:none"
           d="m 278.34903,117.70138 a 3.6664252,4.2828061 0 0 1 -3.66643,4.28281 3.6664252,4.2828061 0 0 1 -3.66642,-4.28281 3.6664252,4.2828061 0 0 1 3.66642,-4.2828 3.6664252,4.2828061 0 0 1 3.66643,4.2828 z"
           inkscape:connector-curvature="0" />
        <path
           id="path4438"
           style="fill:#ffffff;stroke:#000000;stroke-width:0.59835702;stroke-miterlimit:4;stroke-dasharray:none"
           d="m 277.81603,126.09386 a 3.6664252,4.2828061 0 0 1 -3.66642,4.28281 3.6664252,4.2828061 0 0 1 -3.66643,-4.28281 3.6664252,4.2828061 0 0 1 3.66643,-4.2828 3.6664252,4.2828061 0 0 1 3.66642,4.2828 z"
           inkscape:connector-curvature="0" />
        <path
           id="path4440"
           style="fill:#ffffff;stroke:#000000;stroke-width:0.59835702;stroke-miterlimit:4;stroke-dasharray:none"
           d="m 277.01655,134.82203 a 3.6664252,4.2828061 0 0 1 -3.66642,4.28279 3.6664252,4.2828061 0 0 1 -3.66643,-4.28279 3.6664252,4.2828061 0 0 1 3.66643,-4.28281 3.6664252,4.2828061 0 0 1 3.66642,4.28281 z"
           inkscape:connector-curvature="0" />
        <path
           id="path4442"
           style="fill:#ffffff;stroke:#000000;stroke-width:0.59835702;stroke-miterlimit:4;stroke-dasharray:none"
           d="m 276.75005,142.5431 a 3.6664252,4.2828061 0 0 1 -3.66643,4.28281 3.6664252,4.2828061 0 0 1 -3.66642,-4.28281 3.6664252,4.2828061 0 0 1 3.66642,-4.2828 3.6664252,4.2828061 0 0 1 3.66643,4.2828 z"
           inkscape:connector-curvature="0" />
        <g
           id="g4478"
           transform="matrix(0.79672096,0,0,0.82686354,172.47008,61.543533)">
          <path
             id="path4444"
             style="fill:#ffffff;stroke:#000000;stroke-width:0.80000001;stroke-miterlimit:4;stroke-dasharray:none"
             d="m 126.61616,23.085756 c -8.10058,-2.8e-5 -10.75548,6.017318 -10.75554,14.964032 -2.28062,2.7997 -0.004,6.63035 2.39375,6.987807 10.81388,1.176071 2.41299,7.898749 9.59549,8.4803 6.88013,-0.554248 1.03457,-8.944678 10.69613,-7.985025 3.04049,-2.387406 1.89142,-7.762215 0.74633,-7.853438 -7e-5,-8.946662 -4.57563,-14.593629 -12.67616,-14.593676 z"
             sodipodi:nodetypes="ccccccc"
             inkscape:connector-curvature="0" />
          <path
             id="path4446"
             style="fill:#000000;stroke:#000000;stroke-width:0.77630502;stroke-miterlimit:4;stroke-dasharray:none"
             d="m 126.32917,40.399534 c 2.432,3.232903 -1.41936,4.377219 -5.028,3.936987 -2.65374,-0.323739 -3.52448,-1.568467 -4.7847,-3.440988 -1.03871,-1.543346 4.19012,-4.792479 6.32554,-3.502989 2.98328,1.801484 2.42643,1.596967 3.48716,3.00699 z"
             sodipodi:nodetypes="sssss"
             inkscape:connector-curvature="0" />
          <path
             id="path4448"
             style="fill:#000000;stroke:#000000;stroke-width:0.75817698;stroke-miterlimit:4;stroke-dasharray:none"
             inkscape:transform-center-x="-2.6645651"
             inkscape:transform-center-y="4.0301493"
             d="m 127.68702,44.819567 c -0.0497,0.0012 -0.10586,0.04372 -0.16847,0.137977 -0.67571,1.017281 -1.01958,0.863373 -1.55029,2.109947 -0.42155,0.990182 -0.0977,1.227875 0.58136,1.417486 0.67909,0.189664 0.95823,-0.382471 1.24385,-1.422654 0.24322,-0.885777 0.17857,-2.249476 -0.10645,-2.242756 z m 0.62063,0.254249 c -0.0696,-9.32e-4 -0.11538,0.06089 -0.12351,0.205155 -0.0641,1.137878 -0.42463,1.18269 -0.25631,2.43241 0.13374,0.992666 0.51915,1.024456 1.17564,0.84491 0.6565,-0.179489 0.60863,-0.770589 0.33744,-1.736847 -0.21595,-0.770036 -0.86013,-1.741982 -1.13326,-1.745628 z"
             inkscape:connector-curvature="0" />
          <path
             id="path4450"
             style="fill:#000000;stroke:#000000;stroke-width:0.74831498;stroke-miterlimit:4;stroke-dasharray:none"
             d="m 129.11115,40.808443 c -2.2385,3.150748 1.61311,3.408142 4.97943,2.987409 2.47556,-0.309397 3.39627,-1.47491 4.47192,-3.33075 1.47778,-2.549677 -4.83749,-3.490396 -6.19067,-2.568566 -3.2909,2.241844 -2.6736,2.085592 -3.26068,2.911907 z"
             sodipodi:nodetypes="sssss"
             inkscape:transform-center-x="7.383945"
             inkscape:transform-center-y="0.54767759"
             inkscape:connector-curvature="0" />
          <path
             style="fill:none;stroke:#000000;stroke-width:0.80000001;stroke-linecap:butt;stroke-linejoin:miter;stroke-miterlimit:4;stroke-dasharray:none;stroke-opacity:1"
             d="m 120.40642,33.494261 c 1.58528,-0.0044 3.15946,3.328305 4.83484,4.281333 1.8403,1.046842 1.22975,-1.956763 0.96698,-2.232148"
             id="path4452"
             sodipodi:nodetypes="csc"
             inkscape:connector-curvature="0" />
          <path
             style="fill:none;stroke:#000000;stroke-width:0.80000001;stroke-linecap:butt;stroke-linejoin:miter;stroke-miterlimit:4;stroke-dasharray:none;stroke-opacity:1"
             d="m 134.67792,33.849511 c -1.55925,-0.0043 -3.10756,3.255917 -4.75544,4.188218 -1.81009,1.024073 -1.20957,-1.914207 -0.9511,-2.183602"
             id="path4454"
             sodipodi:nodetypes="csc"
             inkscape:connector-curvature="0" />
          <path
             id="path4456"
             style="fill:#ffffff;stroke:#000000;stroke-width:0.80000001;stroke-miterlimit:4;stroke-dasharray:none"
             d="m 122.80819,52.930275 c -0.10044,-1.074011 0.29238,-1.982926 0.87736,-2.030116 0.58499,-0.04719 1.14064,0.78522 1.24106,1.859232 0.10045,1.074011 -0.41984,2.828336 -1.00484,2.875525 -0.58499,0.04719 -1.01314,-1.630627 -1.11358,-2.704641 z"
             sodipodi:nodetypes="sssss"
             inkscape:transform-center-x="30.573681"
             inkscape:transform-center-y="-25.914674"
             inkscape:connector-curvature="0" />
          <path
             id="path4458"
             style="fill:#ffffff;stroke:#000000;stroke-width:0.80000001;stroke-miterlimit:4;stroke-dasharray:none"
             d="m 125.0718,53.50363 c -0.10045,-1.074013 0.29236,-1.982926 0.87735,-2.030117 0.58499,-0.04719 1.14063,0.78522 1.24107,1.859232 0.10044,1.074012 -0.41985,2.828337 -1.00485,2.875525 -0.585,0.04719 -1.01315,-1.630627 -1.11357,-2.70464 z"
             sodipodi:nodetypes="sssss"
             inkscape:transform-center-x="30.573681"
             inkscape:transform-center-y="-25.914674"
             inkscape:connector-curvature="0" />
          <path
             id="path4460"
             style="fill:#ffffff;stroke:#000000;stroke-width:0.80000001;stroke-miterlimit:4;stroke-dasharray:none"
             d="m 127.43879,53.53017 c -0.10045,-1.074012 0.29237,-1.982926 0.87733,-2.030117 0.585,-0.04719 1.14065,0.785221 1.24109,1.859232 0.10044,1.074013 -0.41986,2.828337 -1.00484,2.875526 -0.58499,0.04719 -1.01315,-1.630626 -1.11358,-2.704641 z"
             sodipodi:nodetypes="sssss"
             inkscape:transform-center-x="30.573681"
             inkscape:transform-center-y="-25.914674"
             inkscape:connector-curvature="0" />
          <path
             id="path4462"
             style="fill:#ffffff;stroke:#000000;stroke-width:0.80000001;stroke-miterlimit:4;stroke-dasharray:none"
             d="m 129.46177,52.293216 c -0.10044,-1.074011 0.29237,-1.982925 0.87735,-2.030116 0.585,-0.04719 1.14065,0.78522 1.24109,1.859232 0.10043,1.074012 -0.41986,2.828336 -1.00485,2.875525 -0.58498,0.04719 -1.01314,-1.630627 -1.11359,-2.704641 z"
             sodipodi:nodetypes="sssss"
             inkscape:transform-center-x="30.573681"
             inkscape:transform-center-y="-25.914674"
             inkscape:connector-curvature="0" />
          <path
             id="path4464"
             style="fill:#ffffff;stroke:#000000;stroke-width:0.80000001;stroke-miterlimit:4;stroke-dasharray:none"
             d="m 131.72536,51.656157 c -0.10044,-1.074012 0.29237,-1.982926 0.87736,-2.030116 0.58498,-0.04719 1.14063,0.78522 1.24107,1.859232 0.10044,1.074012 -0.41985,2.828336 -1.00484,2.875525 -0.58499,0.04719 -1.01315,-1.630626 -1.11359,-2.704641 z"
             sodipodi:nodetypes="sssss"
             inkscape:transform-center-x="30.573681"
             inkscape:transform-center-y="-25.914674"
             inkscape:connector-curvature="0" />
          <path
             id="path4466"
             style="fill:#ffffff;stroke:#000000;stroke-width:0.80000001;stroke-miterlimit:4;stroke-dasharray:none"
             d="m 126.76842,57.69471 c 0.0549,1.076848 -0.37604,1.970724 -0.96258,1.996525 -0.58653,0.02581 -1.10654,-0.826242 -1.16144,-1.903092 -0.0549,-1.076851 0.53921,-2.810827 1.12573,-2.836631 0.58652,-0.02581 0.94336,1.666346 0.99829,2.743198 z"
             sodipodi:nodetypes="sssss"
             inkscape:transform-center-x="0.046267503"
             inkscape:transform-center-y="0.47846804"
             inkscape:connector-curvature="0" />
          <path
             id="path4468"
             style="fill:#ffffff;stroke:#000000;stroke-width:0.80000001;stroke-miterlimit:4;stroke-dasharray:none"
             d="m 128.9634,57.439886 c 0.0549,1.076847 -0.37604,1.970723 -0.96259,1.996525 -0.58651,0.02581 -1.1065,-0.826242 -1.16143,-1.903092 -0.0549,-1.076851 0.53922,-2.810828 1.12575,-2.836631 0.58652,-0.02581 0.94335,1.666346 0.99827,2.743198 z"
             sodipodi:nodetypes="sssss"
             inkscape:transform-center-x="0.046267503"
             inkscape:transform-center-y="0.47846804"
             inkscape:connector-curvature="0" />
          <path
             id="path4470"
             style="fill:#ffffff;stroke:#000000;stroke-width:0.80000001;stroke-miterlimit:4;stroke-dasharray:none"
             d="m 131.1584,57.057651 c 0.0549,1.076847 -0.37605,1.970724 -0.96259,1.996527 -0.58653,0.02581 -1.10652,-0.826243 -1.16144,-1.903093 -0.0549,-1.076851 0.53921,-2.810828 1.12575,-2.836631 0.58653,-0.02581 0.94336,1.666346 0.99828,2.743197 z"
             sodipodi:nodetypes="sssss"
             inkscape:transform-center-x="0.046267503"
             inkscape:transform-center-y="0.47846804"
             inkscape:connector-curvature="0" />
          <path
             id="path4472"
             style="fill:#ffffff;stroke:#000000;stroke-width:0.80000001;stroke-miterlimit:4;stroke-dasharray:none"
             d="m 133.3534,56.484297 c 0.0549,1.076847 -0.37605,1.970724 -0.96258,1.996525 -0.58654,0.02581 -1.10654,-0.826243 -1.16144,-1.903092 -0.0549,-1.076852 0.53921,-2.810827 1.12574,-2.836631 0.58653,-0.02581 0.94336,1.666346 0.99828,2.743198 z"
             sodipodi:nodetypes="sssss"
             inkscape:transform-center-x="16.934503"
             inkscape:transform-center-y="-9.7127085"
             inkscape:connector-curvature="0" />
          <path
             id="path4474"
             style="fill:#ffffff;stroke:#000000;stroke-width:0.80000001;stroke-miterlimit:4;stroke-dasharray:none"
             d="m 124.43622,57.376179 c 0.0549,1.076847 -0.37604,1.970723 -0.96258,1.996526 -0.58653,0.02581 -1.10654,-0.826243 -1.16144,-1.903092 -0.0549,-1.076852 0.5392,-2.810828 1.12574,-2.836631 0.58653,-0.02581 0.94336,1.666345 0.99828,2.743197 z"
             sodipodi:nodetypes="sssss"
             inkscape:transform-center-x="0.046267503"
             inkscape:transform-center-y="0.47846804"
             inkscape:connector-curvature="0" />
          <path
             id="path4476"
             style="fill:#ffffff;stroke:#000000;stroke-width:0.80000001;stroke-miterlimit:4;stroke-dasharray:none"
             d="m 137.22431,56.377217 c -0.27739,0.765581 -0.26834,1.42395 -0.54948,2.085634 -0.23453,0.551999 -0.33711,1.481511 -0.93423,1.537729 -0.70191,0.06608 -1.36601,2.090402 -2.86459,2.406786 -1.04247,0.220088 -1.32321,0.981093 -4.41537,0.517208 -0.73414,-0.110136 -0.19881,0.101842 -3.29585,-0.26777 -1.78035,-1.162999 -2.85357,-0.0759 -4.15687,-2.179975 -2.14212,-1.799694 -2.47538,-2.234586 -2.62388,-3.288343 -0.50437,-3.579013 -0.0577,-9.573364 -0.74603,-8.435116 0.70913,-5.891198 3.00482,-1.648695 2.15308,1.624155 1.28302,2.274857 0.76375,4.184243 1.95859,5.485272 1.75196,1.907655 4.50707,1.878956 7.30382,2.180586 3.36566,0.362987 8.18144,-4.079426 6.40661,-5.596784 -1.25558,-7.410605 3.11376,-9.288178 1.58098,-1.827461 0.0787,1.129491 0.21564,3.636948 0.18322,5.758079 z"
             sodipodi:nodetypes="casssccsccssccc"
             inkscape:connector-curvature="0" />
        </g>
        <path
           style="fill:none;stroke:#000000;stroke-width:0.495635;stroke-linecap:butt;stroke-linejoin:miter;stroke-miterlimit:4;stroke-dasharray:none;stroke-opacity:1"
           d="m 271.28267,117.53352 c -5.39105,-0.79468 -7.42172,-0.0782 -13.78909,-0.16784 -3.45733,2.47624 -2.46723,0.18965 -4.26394,5.03549 -2.34181,6.31601 3.17437,5.9695 3.46446,6.04257 l 6.66241,-0.3357 c 6.08134,0.15464 9.21291,-2.58818 2.39846,-3.18913 -0.41349,-0.0365 -4.84382,0.14195 -7.32865,0.50355 0,0 -3.46446,1.67848 -2.39847,-2.01421 1.06599,-3.69267 4.53044,-3.18913 4.53044,-3.18913 l 4.39719,0.16785 c 9.82425,-0.21988 6.19286,-0.0262 6.32719,-2.85345 z"
           id="path4480"
           sodipodi:nodetypes="ccsccscsccc"
           inkscape:connector-curvature="0" />
        <path
           style="fill:none;stroke:#000000;stroke-width:0.495635;stroke-linecap:butt;stroke-linejoin:miter;stroke-miterlimit:4;stroke-dasharray:none;stroke-opacity:1"
           d="m 277.98393,117.70138 c 5.39105,-0.79468 7.42173,-0.0782 13.78909,-0.16784 3.45733,2.47622 2.46724,0.18965 4.26394,5.03548 2.34181,6.31601 -3.17437,5.9695 -3.46445,6.04257 l -6.66241,-0.33569 c -6.08135,0.15464 -9.21292,-2.5882 -2.39846,-3.18914 0.41349,-0.0365 4.84382,0.14194 7.32865,0.50355 0,0 3.46445,1.67849 2.39847,-2.0142 -1.06599,-3.69269 -4.53044,-3.18914 -4.53044,-3.18914 l -4.3972,0.16784 c -9.82425,-0.21987 -6.19286,-0.0262 -6.32719,-2.85344 z"
           id="path4482"
           sodipodi:nodetypes="ccsccscsccc"
           inkscape:connector-curvature="0" />
        <path
           style="fill:none;stroke:#000000;stroke-width:0.48214701;stroke-linecap:butt;stroke-linejoin:miter;stroke-miterlimit:4;stroke-dasharray:none;stroke-opacity:1"
           d="m 271.16267,122.27396 c -5.09477,-0.79575 -7.01385,-0.0783 -13.03129,-0.16807 -3.26733,2.47955 -2.33165,0.18989 -4.02962,5.04223 -2.21311,6.32449 2.99992,5.97752 3.27407,6.0507 l 6.29626,-0.33614 c 5.74714,0.15484 8.70662,-2.59167 2.26666,-3.19343 -0.39077,-0.0366 -4.57762,0.14213 -6.9259,0.50422 0,0 -3.27406,1.68075 -2.26666,-2.0169 1.00741,-3.69764 4.28147,-3.19341 4.28147,-3.19341 l 4.15554,0.16807 c 9.28434,-0.22017 5.85253,-0.0263 5.97947,-2.85727 z"
           id="path4484"
           sodipodi:nodetypes="ccsccscsccc"
           inkscape:connector-curvature="0" />
        <path
           style="fill:none;stroke:#000000;stroke-width:0.47525001;stroke-linecap:butt;stroke-linejoin:miter;stroke-miterlimit:4;stroke-dasharray:none;stroke-opacity:1"
           d="m 272.46755,127.96734 c -4.94668,-0.7963 -6.80997,-0.0783 -12.65249,-0.16819 -3.17236,2.48126 -2.26387,0.19004 -3.91248,5.0457 -2.14879,6.32883 2.91271,5.98162 3.17888,6.05485 l 6.11325,-0.33638 c 5.58008,0.15495 8.45353,-2.59345 2.20077,-3.19561 -0.37941,-0.0366 -4.44456,0.14224 -6.72457,0.50457 0,0 -3.17889,1.68191 -2.20077,-2.01829 0.97812,-3.70018 4.15701,-3.19561 4.15701,-3.19561 l 4.03474,0.1682 c 9.01446,-0.22033 5.6824,-0.0263 5.80566,-2.85923 z"
           id="path4486"
           sodipodi:nodetypes="ccsccscsccc"
           inkscape:connector-curvature="0" />
        <path
           style="fill:none;stroke:#000000;stroke-width:0.44280899;stroke-linecap:butt;stroke-linejoin:miter;stroke-miterlimit:4;stroke-dasharray:none;stroke-opacity:1"
           d="m 270.57381,135.07158 c -4.28059,-0.79886 -5.89298,-0.0786 -10.94879,-0.16873 -2.74519,2.48926 -1.95903,0.19065 -3.38566,5.06196 -1.85943,6.34923 2.52051,6.0009 2.75085,6.07437 l 5.29007,-0.33747 c 4.82871,0.15545 7.31524,-2.6018 1.90444,-3.2059 -0.32833,-0.0366 -3.84609,0.14268 -5.81909,0.50619 0,0 -2.75084,1.68732 -1.90443,-2.02479 0.84641,-3.71211 3.59725,-3.20591 3.59725,-3.20591 l 3.49146,0.16873 c 7.80064,-0.22104 4.91725,-0.0263 5.0239,-2.86845 z"
           id="path4488"
           sodipodi:nodetypes="ccsccscsccc"
           inkscape:connector-curvature="0" />
        <path
           style="fill:none;stroke:#000000;stroke-width:0.48725101;stroke-linecap:butt;stroke-linejoin:miter;stroke-miterlimit:4;stroke-dasharray:none;stroke-opacity:1"
           d="m 278.00711,124.34349 c 5.20586,-0.79535 7.16679,-0.0782 13.31543,-0.16799 3.33857,2.47831 2.38249,0.18981 4.11748,5.03969 2.26138,6.32128 -3.06533,5.97448 -3.34545,6.04763 l -6.43355,-0.33599 c -5.87246,0.15478 -8.89646,-2.59036 -2.31608,-3.19181 0.39929,-0.0366 4.67743,0.14207 7.07691,0.50399 0,0 3.34545,1.67989 2.31608,-2.01589 -1.02936,-3.69578 -4.37481,-3.19179 -4.37481,-3.19179 l -4.24616,0.16799 c -9.48679,-0.22007 -5.98014,-0.0262 -6.10985,-2.85583 z"
           id="path4490"
           sodipodi:nodetypes="ccsccscsccc"
           inkscape:connector-curvature="0" />
        <path
           style="fill:none;stroke:#000000;stroke-width:0.48555601;stroke-linecap:butt;stroke-linejoin:miter;stroke-miterlimit:4;stroke-dasharray:none;stroke-opacity:1"
           d="m 276.67011,130.20745 c 5.16884,-0.79548 7.1158,-0.0782 13.22072,-0.16802 3.31481,2.47872 2.36553,0.18984 4.08818,5.04054 2.24529,6.32234 -3.04352,5.97549 -3.32164,6.04864 l -6.3878,-0.33603 c -5.83068,0.15479 -8.83317,-2.59079 -2.29961,-3.19234 0.39646,-0.0366 4.64417,0.14209 7.02658,0.50406 0,0 3.32165,1.68018 2.2996,-2.01622 -1.02204,-3.6964 -4.3437,-3.19234 -4.3437,-3.19234 l -4.21595,0.16802 c -9.4193,-0.22011 -5.93759,-0.0262 -6.06638,-2.85631 z"
           id="path4492"
           sodipodi:nodetypes="ccsccscsccc"
           inkscape:connector-curvature="0" />
        <path
           style="fill:none;stroke:#000000;stroke-width:0.48555601;stroke-linecap:butt;stroke-linejoin:miter;stroke-miterlimit:4;stroke-dasharray:none;stroke-opacity:1"
           d="m 276.44933,136.54704 c 5.16884,-0.79547 7.11581,-0.0782 13.22073,-0.16801 3.31482,2.47872 2.36554,0.18984 4.08819,5.04054 2.24528,6.32234 -3.04353,5.97549 -3.32165,6.04864 l -6.3878,-0.33604 c -5.83068,0.1548 -8.83317,-2.59078 -2.2996,-3.19233 0.39645,-0.0366 4.64416,0.14209 7.02656,0.50405 0,0 3.32166,1.68018 2.29961,-2.01622 -1.02205,-3.69639 -4.3437,-3.19234 -4.3437,-3.19234 l -4.21594,0.16802 c -9.41931,-0.2201 -5.93761,-0.0262 -6.0664,-2.85631 z"
           id="path4494"
           sodipodi:nodetypes="ccsccscsccc"
           inkscape:connector-curvature="0" />
        <ellipse
           style="fill:#ffffff;stroke:#000000;stroke-width:0.47749901;stroke-miterlimit:4;stroke-dasharray:none"
           id="ellipse4496"
           cx="251.63066"
           cy="124.91891"
           rx="3.5720665"
           ry="5.8424397" />
        <ellipse
           style="fill:#ffffff;stroke:#000000;stroke-width:0.47749901;stroke-miterlimit:4;stroke-dasharray:none"
           id="ellipse4498"
           cx="296.40204"
           cy="124.58322"
           rx="3.5720665"
           ry="5.8424397" />
        <ellipse
           style="fill:#ffffff;stroke:#000000;stroke-width:0.47635099;stroke-miterlimit:4;stroke-dasharray:none"
           id="ellipse4500"
           cx="239.41403"
           cy="152.1666"
           rx="2.4478462"
           ry="2.2450604" />
        <ellipse
           style="fill:#ffffff;stroke:#000000;stroke-width:0.47635099;stroke-miterlimit:4;stroke-dasharray:none"
           id="ellipse4502"
           cx="301.93323"
           cy="155.23953"
           rx="2.4478462"
           ry="2.2450604" />
        <ellipse
           style="fill:#ffffff;stroke:#000000;stroke-width:0.83465302;stroke-miterlimit:4;stroke-dasharray:none"
           id="ellipse4504"
           cx="264.93768"
           cy="162.63242"
           rx="3.404494"
           ry="3.9004364" />
        <ellipse
           style="fill:#ffffff;stroke:#000000;stroke-width:0.83465302;stroke-miterlimit:4;stroke-dasharray:none"
           id="ellipse4506"
           cx="280.82535"
           cy="163.09129"
           rx="3.404494"
           ry="3.9004364" />
        <g
           id="g941"
           transform="matrix(0.2530467,0.32201739,-0.33066952,0.19439859,347.90808,30.154332)">
          <path
             sodipodi:nodetypes="cccccccccccccc"
             d="m 399.91657,400.31726 c -0.41176,0.58318 -1.0693,1.00229 -1.95357,1.19655 -2.84895,0.63549 -7.05862,-1.33062 -9.40969,-4.40068 C 388.08503,396.49431 339.9086,333.27309 289.14892,292.90538 244.35404,257.2866 226.28656,248.65252 201.47819,236.39232 183.3091,227.4125 162.09436,217.74458 126.43972,195.22096 40.915386,141.19536 5.662743,98.81166 4.179404,97.058773 1.6398174,94.055947 1.7227798,90.920169 4.4168109,90.063763 c 2.6629962,-0.858319 6.8845721,0.880935 9.4327271,3.884727 0.518301,0.612779 35.592988,41.21267 117.301032,92.82348 34.52526,21.80714 54.49818,31.68137 72.11118,40.38379 25.22242,12.46578 45.13437,22.30544 92.07996,59.63614 53.14901,42.25455 101.52612,105.37469 103.57119,108.04866 1.60361,2.11002 1.91049,4.19188 1.00367,5.4767 z"
             id="path188672"
             style="fill:#98908b;fill-opacity:1"
             inkscape:connector-curvature="0" />
          <path
             sodipodi:nodetypes="cccccccccccccccccccccccscccccccccscccssccccccccccccccccccccccsccccccccc"
             d="m 399.91657,400.31726 -1.87514,-1.32104 c -0.28664,0.40608 -0.73957,0.69645 -1.36206,0.83352 l -0.005,9.9e-4 c -0.61954,0.1378 -1.31948,0.0995 -2.04981,-0.0796 -1.62711,-0.40385 -3.3689,-1.507 -4.50163,-2.98723 l 0.008,0.0112 c -0.0486,-0.0649 -0.25937,-0.33976 -0.65858,-0.85422 -2.97273,-3.83242 -16.15207,-19.12471 -34.26895,-39.32064 -18.1225,-20.19618 -40.86255,-44.06673 -64.92923,-63.21127 -22.46979,-17.86574 -38.85307,-29.85293 -52.20309,-38.15708 -13.35179,-8.30573 -23.96086,-13.4827 -36.35562,-19.60818 C 183.55109,226.6462 161.95176,216.95708 126.40808,194.5091 41.240769,140.70725 6.9366999,98.105758 5.6504619,96.587648 5.0086752,95.828347 4.6149594,95.071668 4.4491202,94.373524 4.1578276,93.12508 4.6060169,92.100493 5.8115263,91.717797 l 0.00533,-9.82e-4 c 0.6682602,-0.214248 1.4606057,-0.196801 2.2989661,0.01009 1.509033,0.374705 3.1213136,1.347082 4.2649966,2.69673 l -0.0023,-0.004 c 0.06923,0.08143 0.235855,0.275363 0.557461,0.63738 4.769496,5.369675 41.819488,43.561045 118.75523,92.156895 34.63888,21.88229 53.47748,31.82517 71.09787,40.52941 12.61814,6.23575 24.72626,11.82714 38.56021,20.40927 13.83395,8.58213 31.19367,21.86059 54.59132,40.46661 26.29456,20.90078 52.08867,46.85513 70.99987,68.16283 18.9171,21.30916 29.40906,37.10882 30.40141,38.40618 l -0.006,-0.006 c 0.50906,0.66795 0.82423,1.32137 0.96676,1.92644 0.17532,0.7384 0.0827,1.40147 -0.2625,1.88963 l 9e-4,-0.002 1.87514,1.32104 1.87603,1.31897 c 0.65214,-0.926 0.82292,-2.16037 0.49707,-3.54373 -0.26637,-1.13084 -0.86825,-2.36402 -1.80134,-3.59275 l -0.006,-0.007 c -1.05272,-1.3766 -13.70142,-17.88145 -32.77199,-39.36406 -19.07676,-21.48529 -44.55557,-47.9469 -71.41032,-69.3019 -23.54646,-18.72432 -40.39102,-30.6151 -54.55563,-39.40292 -14.16137,-8.78587 -25.60691,-14.4404 -38.2109,-20.66922 -17.60592,-8.70181 -37.35345,-18.45723 -71.76684,-40.1908 -40.677806,-25.6947 -69.708758,-48.62199 -88.615226,-65.17633 -9.45264,-8.2776 -16.373502,-14.96066 -20.952838,-19.59976 -2.287905,-2.317968 -3.991453,-4.126348 -5.13293,-5.366298 -0.57,-0.619792 -1.001389,-1.099672 -1.29277,-1.427803 -0.14731,-0.16504 -0.257629,-0.291077 -0.335672,-0.380425 l -0.08772,-0.100929 -0.02317,-0.02755 -0.0041,-0.0056 -0.0035,-0.0032 C 13.189854,90.96494 10.151161,89.124652 7.3399813,88.433193 5.7692441,88.044409 4.2546171,88.01187 3.0155777,88.411568 l 0.00533,-9.83e-4 c -2.24713099,0.71162 -3.10820229,2.656907 -2.55695061,4.97946 0.3056993,1.303704 1.05965421,2.73986 2.24438971,4.139854 1.6792515,1.988519 37.8819452,44.154801 123.7616632,98.402531 35.76797,22.59755 56.56013,32.88077 74.73807,41.86278 12.41067,6.134 22.93496,11.33598 35.94904,19.42968 13.01465,8.09614 28.56911,19.11933 50.89538,36.87152 25.09019,19.94864 49.76739,45.6747 68.16765,66.45991 9.20309,10.39334 16.84358,19.5531 22.2088,26.14753 2.68276,3.29783 4.79596,5.95415 6.25173,7.80249 0.72789,0.92417 1.29128,1.64574 1.67877,2.14581 0.38515,0.49604 0.60613,0.78497 0.61462,0.79741 l 0.01,0.0128 c 2.10811,2.75272 5.37608,4.83457 8.41604,5.58249 1.37001,0.33925 2.70135,0.40813 3.8504,0.15168 l -0.004,1.3e-4 c 1.14635,-0.25023 2.00851,-0.79809 2.54537,-1.55835 l 9e-4,-0.002 -1.87603,-1.31897"
             id="path188674"
             inkscape:connector-curvature="0"
             style="fill:#000000;fill-opacity:1" />
          <path
             d="m 59.468,140.802 c -1.313,1.978 -3.538,3.296 -6.09,3.327 -21.543,0.264 -24.507,-6.233 -25.492,-8.368 -0.828,-1.851 -1.039,-3.85 -0.607,-5.717 -9.851,-4.804 -12.941,-8.337 -12.498,-13.284 0.116,-1.26 0.527,-2.658 1.387,-3.849 -1.229,-0.681 -2.288,-1.255 -2.996,-1.635 l -0.637,-0.348 C 5.742,107.284 1.935,97.829 0.929,95.018 c -1.377,-3.855 0.637,-8.1 4.487,-9.466 3.85,-1.381 8.095,0.623 9.466,4.478 1.181,3.237 3.501,7.145 4.677,7.863 l 0.622,0.336 c 7.604,4.087 14.723,8.112 18.151,12.498 2.943,3.744 2.41,6.983 1.672,8.813 0.416,0.174 0.854,0.358 1.302,0.543 2.453,1.028 8.09,3.385 7.784,9.139 1.382,0.074 2.785,0.105 4.103,0.094 4.087,-0.052 7.441,3.228 7.493,7.315 0.027,1.54 -0.432,2.974 -1.218,4.171"
             id="path188676"
             inkscape:connector-curvature="0"
             style="fill:#1a1919" />
          <path
             d="m 11.111,90.357 c 0,0 5.226,3.738 10.683,-0.945 5.464,-4.677 3.861,-13.431 3.861,-13.431 0,0 28.513,-46.269 74.862,-67.137 46.342,-20.866 115.472,1.736 115.472,1.736 0,0 -67.622,-7.853 -116.069,23.335 -41.48,26.71 -55.386,73.944 -55.386,73.944 0,0 -10.706,-7.082 -15.103,4.947 L 11.111,90.357"
             id="path188678"
             inkscape:connector-curvature="0"
             style="fill:#1a1919" />
          <path
             d="M 197.843,5.823 C 187.423,4.879 127.464,0.94 83.384,29.311 c -41.481,26.71 -55.393,73.944 -55.393,73.944 0,0 -3.897,-2.552 -7.947,-1.956 l 9.387,11.507 c 4.397,-12.029 15.103,-4.947 15.103,-4.947 0,0 13.906,-47.234 55.386,-73.944 C 148.367,2.727 215.989,10.58 215.989,10.58 c 0,0 -7.061,-2.294 -18.146,-4.757 z"
             id="path188680"
             style="fill:url(#Gradient_2)"
             inkscape:connector-curvature="0" />
          <path
             d="m 197.843,5.823 0.122,-1.344 C 195.127,4.221 188.699,3.748 179.948,3.748 168.062,3.749 151.892,4.62 134.616,8.104 117.341,11.59 98.953,17.686 82.652,28.176 61.664,41.694 47.696,60.358 38.96,75.63 30.225,90.904 26.717,102.803 26.696,102.874 l 1.295,0.381 0.739,-1.129 c -0.049,-0.032 -0.894,-0.583 -2.227,-1.14 -1.334,-0.554 -3.158,-1.125 -5.198,-1.128 -0.476,0 -0.964,0.032 -1.458,0.105 -0.482,0.072 -0.885,0.394 -1.062,0.848 -0.175,0.454 -0.095,0.964 0.213,1.341 l 9.387,11.506 c 0.307,0.378 0.79,0.559 1.27,0.479 0.48,-0.081 0.877,-0.411 1.044,-0.868 0.944,-2.577 2.136,-4.074 3.344,-4.951 1.211,-0.873 2.49,-1.176 3.789,-1.18 1.523,-0.003 3.044,0.454 4.165,0.93 0.561,0.235 1.022,0.473 1.335,0.647 0.158,0.088 0.278,0.159 0.356,0.206 l 0.083,0.054 0.018,0.01 0.027,-0.041 -0.027,0.041 0.027,-0.041 -0.027,0.041 c 0.357,0.236 0.805,0.289 1.207,0.142 0.403,-0.147 0.711,-0.476 0.832,-0.887 l 0.008,-0.027 c 0.194,-0.648 3.8,-12.462 12.414,-27.346 8.613,-14.888 22.229,-32.831 42.402,-45.817 15.919,-10.25 33.993,-16.261 51.037,-19.699 17.042,-3.438 33.047,-4.302 44.806,-4.302 5.92,0 10.765,0.219 14.125,0.438 1.679,0.108 2.987,0.218 3.874,0.3 0.443,0.04 0.78,0.074 1.005,0.098 0.113,0.011 0.198,0.021 0.254,0.027 l 0.08,0.009 c 0.688,0.08 1.327,-0.377 1.475,-1.053 0.147,-0.677 -0.244,-1.358 -0.902,-1.572 -0.032,-0.011 -7.131,-2.316 -18.27,-4.791 l -0.171,-0.026 -0.122,1.344 -0.293,1.318 c 5.515,1.225 10.028,2.408 13.159,3.284 1.565,0.438 2.785,0.799 3.611,1.05 0.413,0.125 0.728,0.223 0.939,0.289 0.105,0.033 0.184,0.059 0.237,0.075 l 0.076,0.025 0.417,-1.284 0.156,-1.341 c -0.041,-0.005 -7.676,-0.89 -19.65,-0.89 -11.891,0 -28.063,0.872 -45.34,4.356 C 133.879,16.191 115.491,22.287 99.19,32.78 78.2,46.298 64.234,64.962 55.5,80.233 46.766,95.508 43.26,107.407 43.238,107.478 l 1.296,0.381 0.744,-1.126 c -0.05,-0.032 -0.896,-0.59 -2.232,-1.154 -1.337,-0.56 -3.167,-1.138 -5.214,-1.141 -1.733,-0.005 -3.645,0.439 -5.373,1.694 -1.729,1.251 -3.222,3.263 -4.296,6.21 l 1.268,0.464 1.046,-0.854 -9.387,-11.506 -1.046,0.853 0.198,1.335 c 0.351,-0.052 0.707,-0.076 1.063,-0.076 1.52,-0.003 3.039,0.45 4.158,0.92 0.56,0.233 1.02,0.468 1.333,0.64 0.157,0.087 0.277,0.157 0.354,0.204 l 0.085,0.052 0.016,0.011 0.027,-0.041 -0.027,0.041 0.027,-0.041 -0.027,0.041 c 0.359,0.234 0.804,0.285 1.206,0.138 0.402,-0.148 0.708,-0.475 0.829,-0.886 l 0.008,-0.028 c 0.194,-0.647 3.801,-12.461 12.416,-27.346 8.614,-14.888 22.232,-32.831 42.404,-45.817 15.92,-10.248 33.993,-16.259 51.036,-19.695 17.041,-3.437 33.044,-4.303 44.798,-4.303 8.653,0 15.003,0.469 17.773,0.719 l 0.122,-1.344 -0.293,1.318 0.293,-1.318"
             id="path188682"
             inkscape:connector-curvature="0"
             style="fill:#1a1919" />
        </g>
        <path
           style="fill:#bfbfbf;fill-opacity:1;stroke:#000000;stroke-width:0.31590801;stroke-linecap:butt;stroke-linejoin:miter;stroke-miterlimit:4;stroke-dasharray:none;stroke-opacity:1"
           d="m 320.32018,146.0833 c 0,0 -0.43434,-1.65871 0.78737,-1.63063 1.22167,0.0281 1.07479,1.61845 1.07479,1.61845 l -0.49024,0.95935 0.87117,0.16657 c 0.47842,0.54725 2.50992,3.12518 -0.68939,2.74118 0.0811,-0.11726 -14.44858,5.41102 -14.44858,5.41102 0.12384,0.24664 -1.3877,4.81068 -2.39817,2.69274 -0.61351,-1.28594 -0.84801,-2.47424 -0.46658,-2.79522 0.38145,-0.32096 -1.56961,-0.14598 -1.69853,-1.79765 -0.12908,-1.65164 1.14947,-1.47574 1.5567,-1.46638 0.40722,0.009 1.05799,-0.33292 1.05799,-0.33292 z"
           id="path4508"
           sodipodi:nodetypes="cscccccsssscc"
           inkscape:transform-center-x="-3.6102601"
           inkscape:transform-center-y="-14.485241"
           inkscape:connector-curvature="0" />
        <ellipse
           style="fill:#ffffff;stroke:#000000;stroke-width:0.83465302;stroke-miterlimit:4;stroke-dasharray:none"
           id="ellipse4510"
           cx="280.14444"
           cy="205.07834"
           rx="2.7235951"
           ry="3.2121236" />
        <ellipse
           style="fill:#ffffff;stroke:#000000;stroke-width:0;stroke-miterlimit:4;stroke-dasharray:none"
           id="ellipse4512"
           cx="279.69052"
           cy="238.11731"
           rx="4.6429272"
           ry="3.7757287" />
        <path
           id="path4514"
           style="fill:#ffffff;stroke:#000000;stroke-width:0.93199003"
           d="m 285.48676,238.71155 c -0.37158,1.74039 -3.43714,2.06789 -6.14864,1.98627 -4.11561,-0.12388 -5.68638,1.36102 -5.67458,-1.98627 0.0117,-3.31275 2.64672,-5.99834 5.91161,-5.99834 3.26489,0 6.58887,2.82629 5.91161,5.99834 z"
           sodipodi:nodetypes="sssss"
           inkscape:connector-curvature="0" />
        <g
           id="g4524"
           transform="matrix(0.77948011,0,0,0.78796689,185.90668,54.939627)">
          <ellipse
             style="opacity:1;fill:#bfbfbf;fill-opacity:1;stroke:#000000;stroke-width:0.58039498;stroke-miterlimit:4;stroke-dasharray:none;stroke-opacity:1"
             id="ellipse4516"
             cx="177.24669"
             cy="113.14936"
             rx="3.9720652"
             ry="1.479901" />
          <ellipse
             style="opacity:1;fill:#bfbfbf;fill-opacity:1;stroke:#000000;stroke-width:0.58039498;stroke-miterlimit:4;stroke-dasharray:none;stroke-opacity:1"
             id="ellipse4518"
             cx="177.24669"
             cy="115.49924"
             rx="3.9720652"
             ry="1.479901" />
          <ellipse
             style="opacity:1;fill:#bfbfbf;fill-opacity:1;stroke:#000000;stroke-width:0.58039498;stroke-miterlimit:4;stroke-dasharray:none;stroke-opacity:1"
             id="ellipse4520"
             cx="177.09172"
             cy="120.93331"
             rx="3.9720652"
             ry="1.479901" />
          <ellipse
             style="opacity:1;fill:#bfbfbf;fill-opacity:1;stroke:#000000;stroke-width:0.58039498;stroke-miterlimit:4;stroke-dasharray:none;stroke-opacity:1"
             id="ellipse4522"
             cx="177.06514"
             cy="118.28539"
             rx="3.9720652"
             ry="1.479901" />
        </g>
        <path
           id="path4526"
           style="fill:#ffffff;stroke:#000000;stroke-width:0.51073301"
           inkscape:transform-center-x="1.0877048"
           d="m 296.73015,128.48494 a 3.2246831,1.5658447 82.937344 0 0 -1.15411,3.39804 3.2246831,1.5658447 82.937344 0 0 1.63658,2.976 l 1.75206,14.04603 a 3.3604329,1.8871791 82.960775 0 0 -0.0297,0.003 3.3604329,1.8871791 82.960775 0 0 -1.45604,3.57326 3.3604329,1.8871791 82.960775 0 0 2.28795,3.09603 3.3604329,1.8871791 82.960775 0 0 1.40198,-1.8225 3.3604329,1.8871791 82.960775 0 0 1.44186,0.80348 3.3604329,1.8871791 82.960775 0 0 1.45604,-3.57326 3.3604329,1.8871791 82.960775 0 0 -2.28794,-3.09602 3.3604329,1.8871791 82.960775 0 0 -0.55572,0.23764 l -1.54634,-12.39675 a 3.3604329,1.8871791 82.960775 0 0 0.59668,0.0907 3.3604329,1.8871791 82.960775 0 0 1.45604,-3.57326 3.3604329,1.8871791 82.960775 0 0 -2.28794,-3.09603 3.3604329,1.8871791 82.960775 0 0 -1.10102,0.92662 3.2246831,1.5658447 82.937344 0 0 -1.61033,-1.59298 z"
           inkscape:transform-center-y="0.39297441"
           inkscape:connector-curvature="0" />
        <path
           id="path4528"
           style="fill:#ffffff;stroke:#000000;stroke-width:0.59734899"
           inkscape:transform-center-x="-8.2304064"
           d="m 281.52085,168.2501 a 1.6127233,4.2829583 3.9319196 0 0 -1.86452,4.2852 1.6127233,4.2829583 3.9319196 0 0 1.05345,4.17874 l -1.08824,18.7622 a 1.9433993,4.4638982 4.1866994 0 0 -0.031,7.9e-4 1.9433993,4.4638982 4.1866994 0 0 -2.20668,4.46718 1.9433993,4.4638982 4.1866994 0 0 1.68998,4.44142 1.9433993,4.4638982 4.1866994 0 0 1.79456,-2.17239 1.9433993,4.4638982 4.1866994 0 0 1.29919,1.28902 1.9433993,4.4638982 4.1866994 0 0 2.20668,-4.46719 1.9433993,4.4638982 4.1866994 0 0 -1.68996,-4.44142 1.9433993,4.4638982 4.1866994 0 0 -0.61241,0.22329 l 0.96047,-16.55917 a 1.9433993,4.4638982 4.1866994 0 0 0.58697,0.21537 1.9433993,4.4638982 4.1866994 0 0 2.20667,-4.46718 1.9433993,4.4638982 4.1866994 0 0 -1.68995,-4.44143 1.9433993,4.4638982 4.1866994 0 0 -1.30636,1.04208 1.6127233,4.2829583 3.9319196 0 0 -1.30903,-2.35486 z"
           inkscape:transform-center-y="-67.832416"
           inkscape:connector-curvature="0" />
        <path
           id="path4530"
           style="fill:#ffffff;stroke:#000000;stroke-width:0.51073301"
           inkscape:transform-center-x="6.4259233"
           d="m 249.45471,125.19701 a 1.5682199,3.219799 23.030354 0 0 -2.70381,2.33175 1.5682199,3.219799 23.030354 0 0 -0.0889,3.40375 l -5.56113,12.99325 a 1.8900337,3.3553575 22.960813 0 0 -0.0272,-0.0126 1.8900337,3.3553575 22.960813 0 0 -3.05194,2.32731 1.8900337,3.3553575 22.960813 0 0 0.41142,3.8421 1.8900337,3.3553575 22.960813 0 0 2.12423,-0.84791 1.8900337,3.3553575 22.960813 0 0 0.8369,1.4333 1.8900337,3.3553575 22.960813 0 0 3.05194,-2.3273 1.8900337,3.3553575 22.960813 0 0 -0.41143,-3.84211 1.8900337,3.3553575 22.960813 0 0 -0.59801,-0.0812 l 4.90814,-11.46759 a 1.8900337,3.3553575 22.960813 0 0 0.46801,0.38502 1.8900337,3.3553575 22.960813 0 0 3.05193,-2.32731 1.8900337,3.3553575 22.960813 0 0 -0.41142,-3.8421 1.8900337,3.3553575 22.960813 0 0 -1.41423,0.23143 1.5682199,3.219799 23.030354 0 0 -0.58457,-2.19962 z"
           inkscape:transform-center-y="-6.0293848"
           inkscape:connector-curvature="0" />
        <path
           id="path4532"
           style="fill:#ffffff;stroke:#000000;stroke-width:0.50181699"
           inkscape:transform-center-x="8.7232249"
           d="m 237.47217,154.34544 c -0.87056,0.11506 -1.49533,1.58227 -1.39543,3.27707 0.0864,1.45973 0.68905,2.64705 1.44107,2.83915 l 0.79361,13.46986 c -0.01,8.6e-4 -0.0201,0.002 -0.0301,0.003 -1.04919,0.13868 -1.81535,1.6828 -1.71127,3.44889 0.10404,1.76609 1.03891,3.08544 2.0881,2.94684 0.66664,-0.0888 1.24961,-0.75929 1.53611,-1.76675 0.39111,0.54966 0.95654,-1.6881 1.45891,-1.75432 1.04918,-0.13867 1.59194,0.14208 1.48788,-1.62399 -0.10403,-1.7661 -0.87934,-2.40113 -1.92853,-2.26253 -0.19855,0.027 -0.39272,0.10616 -0.57543,0.23473 l -0.70043,-11.88823 c 0.19492,0.0787 0.39536,0.10572 0.594,0.0802 1.04918,-0.13868 1.81533,-1.68278 1.71127,-3.44885 -0.10403,-1.76609 -1.0389,-3.08544 -2.08809,-2.94685 -0.44414,0.0593 -0.85867,0.37879 -1.17153,0.9028 -0.32816,-1.00496 -0.91284,-1.59005 -1.51011,-1.51117 z"
           inkscape:transform-center-y="-12.167636"
           inkscape:connector-curvature="0"
           sodipodi:nodetypes="ccccccccccccccccccc" />
        <path
           id="path4534"
           style="fill:#ffffff;stroke:#000000;stroke-width:0.59734899"
           inkscape:transform-center-x="2.7915354"
           d="m 259.46414,167.28936 a 1.6186539,4.2672659 6.726699 0 0 -2.07961,4.15562 1.6186539,4.2672659 6.726699 0 0 0.84743,4.22377 l -2.02076,18.61722 a 1.9506177,4.4473793 6.948827 0 0 -0.0311,-8.9e-4 1.9506177,4.4473793 6.948827 0 0 -2.43125,4.31641 1.9506177,4.4473793 6.948827 0 0 1.47177,4.52336 1.9506177,4.4473793 6.948827 0 0 1.90472,-2.05602 1.9506177,4.4473793 6.948827 0 0 1.23694,1.3611 1.9506177,4.4473793 6.948827 0 0 2.43124,-4.31639 1.9506177,4.4473793 6.948827 0 0 -1.47176,-4.52337 1.9506177,4.4473793 6.948827 0 0 -0.62426,0.18583 l 1.78349,-16.43117 a 1.9506177,4.4473793 6.948827 0 0 0.57706,0.24947 1.9506177,4.4473793 6.948827 0 0 2.43125,-4.31638 1.9506177,4.4473793 6.948827 0 0 -1.47174,-4.52336 1.9506177,4.4473793 6.948827 0 0 -1.35982,0.95962 1.6186539,4.2672659 6.726699 0 0 -1.19389,-2.42296 z"
           inkscape:transform-center-y="-1.6491077"
           inkscape:connector-curvature="0" />
        <ellipse
           style="fill:#ffffff;stroke:#000000;stroke-width:0.83465302;stroke-miterlimit:4;stroke-dasharray:none"
           id="ellipse4536"
           cx="256.62833"
           cy="202.3197"
           rx="2.7235951"
           ry="3.2121236" />
        <path
           id="path4538"
           style="fill:#ffffff;stroke:#000000;stroke-width:0.59734899"
           inkscape:transform-center-x="-16.071848"
           d="m 254.87746,200.46528 a 1.6132403,4.2815856 10.608767 0 0 -2.35129,4.03311 1.6132403,4.2815856 10.608767 0 0 0.55875,4.27513 l -3.2688,18.50166 a 1.9440433,4.4624195 10.854054 0 0 -0.0309,-0.002 1.9440433,4.4624195 10.854054 0 0 -2.71228,4.17306 1.9440433,4.4624195 10.854054 0 0 1.1602,4.61184 1.9440433,4.4624195 10.854054 0 0 2.0354,-1.94337 1.9440433,4.4624195 10.854054 0 0 1.1398,1.43487 1.9440433,4.4624195 10.854054 0 0 2.71229,-4.17301 1.9440433,4.4624195 10.854054 0 0 -1.16019,-4.61187 1.9440433,4.4624195 10.854054 0 0 -0.63416,0.14882 l 2.885,-16.32918 a 1.9440433,4.4624195 10.854054 0 0 0.55776,0.28379 1.9440433,4.4624195 10.854054 0 0 2.71227,-4.17303 1.9440433,4.4624195 10.854054 0 0 -1.16017,-4.61185 1.9440433,4.4624195 10.854054 0 0 -1.41879,0.87913 1.6132403,4.2815856 10.608767 0 0 -1.02526,-2.49445 z"
           inkscape:transform-center-y="-66.585554"
           inkscape:connector-curvature="0" />
        <path
           id="path4540"
           style="fill:#ffffff;stroke:#000000;stroke-width:0.93199003"
           d="m 256.00336,237.57531 c -0.37158,1.74037 -3.43714,2.06788 -6.14864,1.98625 -4.11561,-0.12387 -5.68638,1.36104 -5.67458,-1.98625 0.0117,-3.31276 2.64673,-5.99835 5.91161,-5.99835 3.26489,0 6.58888,2.82628 5.91161,5.99835 z"
           sodipodi:nodetypes="sssss"
           inkscape:connector-curvature="0" />
        <g
           transform="matrix(1.0011081,0,0,0.8558057,11.768236,-0.55450682)"
           id="g7152">
          <path
             id="path4891"
             d="m 237.18856,132.18321 c 10.70643,-14.00072 11.53,-4.11786 10.70643,-14.4125 -0.82357,-10.29464 -7.00036,-25.530714 0.82357,-28.001428 7.82393,-2.470713 14.00071,-8.647499 20.58928,-2.470713 6.58857,6.176785 11.53001,6.176785 10.29464,17.295001 -1.23534,11.11821 -2.4707,8.23571 -2.8825,16.05964 -0.41177,7.82393 -10.70642,2.05893 0,8.6475 10.70644,6.58857 18.94215,2.8825 10.70644,7.41214 -8.23571,4.52965 5.76501,4.52965 -11.11821,5.765 -16.88322,1.23536 -25.11893,4.94143 -32.53108,2.05893 -7.41214,-2.8825 -14.4125,-4.11786 -6.58857,-12.35357 z"
             style="fill:none;stroke:#000000;stroke-width:0.86500001;stroke-linecap:butt;stroke-linejoin:miter;stroke-miterlimit:4;stroke-dasharray:none;stroke-opacity:1"
             inkscape:connector-curvature="0" />
          <path
             sodipodi:nodetypes="csssssc"
             id="path5317"
             d="m 251.28528,118.50882 c 3.7853,-6.98823 -0.87353,-14.85 9.02647,-14.26765 9.90001,0.58236 7.58079,-5.536711 10.19118,0.58236 2.61426,6.12815 3.40356,-0.35892 2.475,6.55146 -1.85172,13.7806 0.95013,6.22168 -2.475,12.95736 -4.56906,8.98527 -0.94124,6.7319 -7.27941,7.27941 -8.77991,0.75844 -5.82353,10.48235 -11.93824,-13.10294 z"
             style="fill:none;stroke:#000000;stroke-width:0.96499997;stroke-linecap:butt;stroke-linejoin:miter;stroke-miterlimit:4;stroke-dasharray:none;stroke-opacity:1"
             inkscape:connector-curvature="0" />
          <path
             inkscape:connector-curvature="0"
             sodipodi:nodetypes="sssssssscsssssssssssssssssssssssssssssssscssssssssssssss"
             transform="scale(0.26458333,0.26458333)"
             id="path6950"
             d="m 935.9833,547.95794 c -5.10278,-0.63679 -11.22175,-2.44454 -22.28532,-6.58384 -14.14215,-5.29111 -20.52892,-8.31953 -24.01278,-11.38614 -3.11844,-2.74496 -4.05021,-4.59416 -4.05021,-8.03812 0,-4.9174 3.15677,-10.98151 9.21071,-17.69368 1.47535,-1.63575 4.75737,-5.57405 7.29337,-8.75177 6.38743,-8.0037 16.45014,-17.89913 21.73863,-21.37726 2.42112,-1.59231 6.50676,-3.81472 9.0792,-4.93868 5.93572,-2.59345 6.6018,-3.686 6.60032,-10.82626 -0.002,-11.3268 -1.51623,-22.78743 -6.39634,-48.42241 -4.79429,-25.18423 -5.79752,-32.4256 -5.8318,-42.09449 -0.0408,-11.51048 1.5924,-17.45361 6.09885,-22.19311 2.4727,-2.60057 3.6755,-3.23861 11.63457,-6.17167 3.48037,-1.28257 11.03261,-4.49174 16.78277,-7.13147 23.20085,-10.65084 31.52003,-12.43809 41.81933,-8.98424 4.5305,1.51926 8.515,4.08178 14.0315,9.02388 2.5725,2.30458 8.5152,7.17955 13.2061,10.83326 12.1895,9.49426 15.5885,12.6354 18.6894,17.27167 5.5808,8.34395 7.0178,17.81678 5.247,34.58929 -1.2879,12.19894 -3.4733,24.07493 -6.0988,33.1416 -2.818,9.73161 -3.8457,15.3129 -4.6166,25.07307 -0.6699,8.48069 -1.7932,11.54311 -5.3974,14.71565 -1.7659,1.55444 -3.7527,2.58385 -6.9151,3.58284 -5.2167,1.64797 -5.8607,2.09395 -5.8607,4.05859 0,1.99614 2.2129,4.00481 9.9045,8.99008 19.9053,12.90153 31.2516,17.66259 52.2069,21.90684 4.3765,0.88641 8.0537,1.70804 8.1715,1.82585 0.2209,0.22088 -3.1195,2.29182 -10.3052,6.38899 -10.6032,6.04578 13.1913,33.8511 -11.2797,16.14911 -0.7288,-0.52718 0.6957,1.77009 0.5449,2.01407 -0.5694,0.92132 -9.5076,1.97945 -32.4602,3.84272 -17.5658,1.426 -31.3999,3.13196 -56.12596,6.92126 -10.89505,1.66967 -23.15197,3.39301 -27.23761,3.82963 -6.74276,0.72058 -19.2345,0.9528 -23.38583,0.43474 z m 39.51411,-41.08291 c 8.94487,-5.72196 12.98043,-6.91404 25.30669,-7.47543 7.9507,-0.36211 9.4529,-0.57424 10.73,-1.51518 1.0828,-0.79784 2.3373,-3.22971 4.6328,-8.9805 3.1193,-7.81433 7.9325,-17.944 12.8127,-26.96507 2.3847,-4.4081 2.5148,-4.8671 2.2615,-7.97869 -0.3775,-4.63838 0.5366,-16.50499 2.4375,-31.63965 0.8933,-7.11204 1.6245,-13.36431 1.6249,-13.89393 0,-1.38773 -1.9789,-3.16397 -3.527,-3.16397 -2.042,0 -3.9514,-2.72728 -8.3487,-11.92466 -2.5614,-5.35749 -4.4255,-8.58049 -5.2038,-8.99698 -1.5814,-0.84635 -3.9932,-0.33334 -6.1933,1.31735 -2.7589,2.06997 -7.2007,4.12467 -10.9692,5.07414 -2.34188,0.59003 -7.69055,1.00165 -16.65578,1.2818 -11.68988,0.36529 -13.56288,0.55145 -16.31345,1.62144 -5.70138,2.21786 -9.621,6.87598 -11.40416,13.5528 -0.3233,1.21056 -1.22191,7.15331 -1.99691,13.20612 -1.53523,11.99026 -2.88023,17.90379 -5.30499,23.32437 -0.86484,1.93336 -1.57243,3.87876 -1.57243,4.3231 0,1.00507 7.46642,29.8128 10.79555,41.65253 4.49216,15.97596 6.84767,19.95339 11.50582,19.42835 1.31826,-0.14858 3.57176,-1.08978 5.38226,-2.24794 z"
             style="fill:#2b1100;fill-opacity:1;stroke:#000000;stroke-width:2.00691009;stroke-miterlimit:4;stroke-dasharray:none" />
        </g>
        <path
           inkscape:connector-curvature="0"
           sodipodi:nodetypes="cssssssscsssssssscsssssscssc"
           id="path7187"
           d="m 299.48527,115.05983 c 7.00035,28.00142 1.64712,29.03088 7.82393,27.79553 6.17677,-1.23536 3.29427,-0.82357 7.41214,-1.64715 4.11784,-0.82356 5.35321,-8.6475 4.11784,-0.82356 -1.23536,7.82392 -4.45758,0.29044 -1.23536,7.82392 2.47073,5.77651 9.66224,5.54183 1.64716,7.82393 -17.78801,5.0647 -6.58857,13.58892 -17.70679,5.35321 -11.11821,-8.23571 -9.47108,-5.5591 -9.47108,-5.5591 3.57147,23.07267 -10.3647,40.61684 1.23537,60.73839 5.97651,10.36688 -1.22488,1.51633 9.05928,13.17714 9.82439,11.13951 3.70651,5.35443 0,4.94143 -33.77433,-3.76334 -15.23608,0.82358 -32.11928,0.82358 -16.88322,0 -19.35393,0 -29.23679,-0.82357 -9.88286,-0.82358 -0.82357,0 -9.88286,-2.05893 -9.05928,-2.05893 1.64715,-1.64715 9.05929,-10.70643 7.41214,-9.0593 0.0549,-0.39066 9.05928,-23.88357 9.00074,-23.4835 -1.85973,13.15967 6.58858,-52.60563 0,0 -0.41179,-2.98545 -3.29429,3.19134 -2.8825,6.17679 0,7.82392 -4.11786,18.94214 -4.11785,11.11821 -0.41178,0 -2.47071,-2.8825 -2.05893,-2.88249 -0.82357,0 -8.23571,-1.23535 -7.41215,-1.23537 0,0.82356 -3.70608,4.11786 -3.70607,3.29428 0,0 0,-13.17715 0,-13.17715 0,-0.41178 3.29429,-14.00071 3.29429,-13.58893 -0.82358,1.64714 9.88285,-21.00107 9.93391,1.74227 3.42655,4.96475 17.08911,4.11786 18.02382,-1.11724 6.39067,0.19591 21.41286,-3.08839 13.95697,-3.05142 8.74116,3.46335 13.79483,-5.35322 z"
           style="fill:#2b1100;stroke:#000000;stroke-width:0.26458299px;stroke-linecap:butt;stroke-linejoin:miter;stroke-opacity:1" />
        <path
           inkscape:connector-curvature="0"
           id="path3341"
           style="fill:#bfbfbf;fill-opacity:1;fill-rule:evenodd;stroke:#000000;stroke-width:0.40281841;stroke-linecap:round;stroke-linejoin:round"
           d="m 235.9667,170.24916 1.03506,4.15021 6.55373,0.36268 1.37956,-3.61032 -8.96835,-0.90257 z" />
        <g
           id="g4858"
           style="fill:#bfbfbf;fill-opacity:1"
           transform="matrix(-0.4167829,0.11758244,0.1148968,0.42062615,258.36179,-141.68845)">
          <path
             inkscape:connector-curvature="0"
             id="path4860"
             style="fill:#bfbfbf;fill-opacity:1;stroke:#000000;stroke-width:0.96926999;stroke-linecap:round;stroke-linejoin:round"
             d="m 236.85,681.48 c 2.36,1.31 5.52,2.55 6.98,6.15 1.9,3.77 3.37,8.6 1.62,11.48 -0.84,1.4 -1.45,2.94 -2.25,5.31 -0.37,1.09 -2.46,1.94 -4.47,1.9 -0.63,-0.01 -1.38,0.39 -2.08,0.47 -1.11,0.11 -1.72,-0.5 -2.51,-0.52 -6.94,-0.16 -2.87,-4.33 -2.34,-6.6 1.04,-4.43 -1.16,-8.51 -2.97,-2.82 -0.42,1.32 0.82,1.08 1.63,3.2 0.16,0.43 -0.45,4.03 -2.12,2.79 -5.73,-4.26 -4.56,-9.37 -4.05,-16.68" />
          <path
             inkscape:connector-curvature="0"
             id="path4862"
             style="fill:#bfbfbf;fill-opacity:1;fill-rule:evenodd;stroke:#000000;stroke-width:0.99934572;stroke-linecap:round;stroke-miterlimit:4;stroke-dasharray:none"
             d="m 240.16,694.37 0,6.02 -1.64,5.81" />
          <path
             inkscape:connector-curvature="0"
             id="path4864"
             style="fill:#bfbfbf;fill-opacity:1;fill-rule:evenodd;stroke:#000000;stroke-width:0.99934572;stroke-linecap:round;stroke-miterlimit:4;stroke-dasharray:none"
             d="m 243.34,692.94 0.76,6.57 -0.44,3.29" />
          <path
             inkscape:connector-curvature="0"
             id="path4866"
             style="fill:#bfbfbf;fill-opacity:1;fill-rule:evenodd;stroke:#000000;stroke-width:0.99934572;stroke-linecap:round;stroke-miterlimit:4;stroke-dasharray:none"
             d="m 236.33,696.12 -0.66,5.26 -1.53,4.71" />
        </g>
        <path
           inkscape:connector-curvature="0"
           id="path3343"
           style="fill:#bfbfbf;fill-opacity:1;fill-rule:evenodd;stroke:#000000;stroke-width:0.40281841;stroke-linecap:round;stroke-linejoin:round"
           d="m 235.44936,168.62534 -0.17245,2.88907 10.00303,0.72124 0.34489,-3.07041 c 0,0 -4.13909,0.36268 -7.07106,-0.18134 -2.93196,-0.5399 -3.27686,-0.5399 -3.10441,-0.35856 z" />
        <path
           sodipodi:nodetypes="sssss"
           d="m 283.87005,186.98919 c 1.62334,20.64924 1.83826,37.4753 0.48004,37.58207 -1.35822,0.10679 -0.65054,-15.75683 -1.61782,-36.317 -1.44534,-30.72177 -7.23148,-20.63405 -10.6667,-30.30754 -0.45592,-1.28386 10.18114,8.39323 11.80448,29.04247 z"
           style="fill:#6c5d53;stroke:#6c5d53;stroke-width:0.49808401"
           id="path7722"
           inkscape:connector-curvature="0" />
        <path
           sodipodi:nodetypes="sssss"
           d="m 280.08265,84.011531 c 0,3.85133 4.53251,7.942781 2.6356,4.123475 -1.97457,-3.975703 -3.66318,-8.027026 -2.17188,-9.559536 2.1112,-2.169559 2.08065,-0.575608 0.0565,-0.575607 -2.02419,-1e-6 -0.52021,2.256085 -0.52021,6.011668 z"
           style="fill:#6c5d53;stroke:#6c5d53;stroke-width:0.27104899"
           id="path8233"
           inkscape:connector-curvature="0" />
        <path
           sodipodi:nodetypes="sssss"
           d="m 261.01594,154.86991 c 1.62334,20.64924 1.83826,37.4753 0.48004,37.58207 -1.35822,0.10679 -0.65054,-15.75683 -1.61782,-36.317 -1.44534,-30.72177 -7.23148,-20.63405 -10.6667,-30.30754 -0.45592,-1.28386 10.18114,8.39323 11.80448,29.04247 z"
           style="fill:#6c5d53;stroke:#6c5d53;stroke-width:0.49808401"
           id="path9644"
           inkscape:connector-curvature="0" />
        <path
           sodipodi:nodetypes="sssss"
           d="m 289.14194,148.66189 c 0,3.85133 4.53251,7.94278 2.6356,4.12347 -1.97457,-3.9757 -3.66318,-8.02702 -2.17188,-9.55953 2.1112,-2.16956 2.08065,-0.57561 0.0565,-0.57561 -2.02419,0 -0.52021,2.25608 -0.52021,6.01167 z"
           style="fill:#6c5d53;stroke:#6c5d53;stroke-width:0.27104899"
           id="path9802"
           inkscape:connector-curvature="0" />
        <path
           sodipodi:nodetypes="sssss"
           d="m 256.9068,140.63207 c 0,3.85133 -4.53251,7.94278 -2.6356,4.12347 1.97457,-3.9757 3.66318,-8.02702 2.17188,-9.55953 -2.1112,-2.16956 -2.08065,-0.57561 -0.0565,-0.57561 2.02419,0 0.52021,2.25609 0.52021,6.01167 z"
           style="fill:#6c5d53;stroke:#6c5d53;stroke-width:0.27104899"
           id="path9804"
           inkscape:connector-curvature="0" />
      </g>
    </g>
  </g>
</svg>
